<svg xmlns="http://www.w3.org/2000/svg" width="32" height="32"><g id="tastes"><path d="M12.333 32h-4A1.333 1.333 0 0 1 7 30.667v-15.86c-1.939-.591-3.326-2.361-3.333-4.456v-.148l1-9a1.341 1.341 0 1 1 2.665.299l.001-.006-1 8.933a2 2 0 0 0 1.998 1.903h.002c.736 0 1.333.597 1.333 1.333v15.667h1.333V13.665c0-.736.597-1.333 1.333-1.333h.002a2 2 0 0 0 1.998-1.916v-.004l-1-8.933a1.341 1.341 0 0 1 2.666-.299l.001.006 1 9.017v.147a4.67 4.67 0 0 1-3.3 4.448l-.033.009v15.86c0 .736-.597 1.333-1.333 1.333zm0-23.333v-8a.667.667 0 1 0-1.334 0v8a.667.667 0 1 0 1.334 0zm-2.666 0v-8a.667.667 0 1 0-1.334 0v8a.667.667 0 1 0 1.334 0zM23.76 32h-4.093a1.333 1.333 0 0 1-1.333-1.333V3.307c0-.244.066-.473.18-.67l-.003.006c.157-.273 1.62-2.71 3.793-2.643 1.333.04 2.453.953 3.333 2.717 2.457 4.93 2.697 15.767 2.697 16.223l.001.042c0 .618-.421 1.138-.991 1.289l-.009.002-2.237.567v9.827c0 .736-.597 1.333-1.333 1.333h-.003zM21 29.333h1.427v-9.545c0-.618.42-1.138.991-1.289l.009-.002 2.2-.557c-.12-2.803-.603-10.463-2.38-14.033-.48-.97-.88-1.24-1.023-1.24-.283-.02-.85.51-1.223 1.033z"/></g></svg>
